<svg id="visual" viewBox="0 0 600 600" width="600" height="600" xmlns="http://www.w3.org/2000/svg" xmlns:xlink="http://www.w3.org/1999/xlink" version="1.1"><g transform="translate(260.76441391758516 318.10458841387685)"><path d="M117.7 -210.8C156.4 -181.5 194.2 -157.7 237 -123.5C279.7 -89.3 327.4 -44.7 332 2.7C336.6 50 298.2 100 261 143.9C223.9 187.8 187.9 225.5 144.6 231.7C101.3 237.8 50.7 212.4 -0.2 212.9C-51.2 213.3 -102.3 239.6 -132.2 225.7C-162.1 211.7 -170.7 157.6 -189.4 113.3C-208.2 69 -237.1 34.5 -248.5 -6.6C-259.9 -47.7 -253.8 -95.3 -225.1 -122.4C-196.4 -149.5 -145.1 -155.9 -103.8 -183.8C-62.5 -211.6 -31.3 -260.8 4.1 -267.9C39.5 -275.1 79 -240.2 117.7 -210.8" fill="#d9d2d5"></path></g></svg>