<svg width="1918" height="1552" viewBox="0 0 1918 1552" fill="none" xmlns="http://www.w3.org/2000/svg">
    <mask id="mask0_1_2496" style="mask-type:alpha" maskUnits="userSpaceOnUse" x="0" y="0" width="1920" height="1552">
        <rect width="1920" height="1552" fill="#C4C4C4"/>
    </mask>
    <g mask="url(#mask0_1_2496)">
        <path d="M601.5 -108.846C601.5 286.398 280.266 606.809 -116 606.809C-512.266 606.809 -833.5 286.398 -833.5 -108.846C-833.5 -504.089 -512.266 -824.5 -116 -824.5C280.266 -824.5 601.5 -504.089 601.5 -108.846Z" stroke="#E3E3E3"/>
        <path d="M2822.5 -134.131C2822.5 322.259 2451.57 692.238 1994 692.238C1536.43 692.238 1165.5 322.259 1165.5 -134.131C1165.5 -590.521 1536.43 -960.5 1994 -960.5C2451.57 -960.5 2822.5 -590.521 2822.5 -134.131Z" stroke="#E3E3E3"/>
        <path d="M2572.5 -134.133C2572.5 184.54 2313.5 442.878 1994 442.878C1674.5 442.878 1415.5 184.54 1415.5 -134.133C1415.5 -452.806 1674.5 -711.145 1994 -711.145C2313.5 -711.145 2572.5 -452.806 2572.5 -134.133Z" stroke="#E3E3E3"/>
    </g>
</svg>
