<svg id="visual" viewBox="0 0 2600 100" width="2600" height="100" xmlns="http://www.w3.org/2000/svg" xmlns:xlink="http://www.w3.org/1999/xlink" version="1.1"><path d="M0 72L18.8 68.7C37.7 65.3 75.3 58.7 113 53.5C150.7 48.3 188.3 44.7 226 48.8C263.7 53 301.3 65 339 70.8C376.7 76.7 414.3 76.3 452 73.8C489.7 71.3 527.3 66.7 565 66.7C602.7 66.7 640.3 71.3 678 70C715.7 68.7 753.3 61.3 791 57.3C828.7 53.3 866.3 52.7 904 56C941.7 59.3 979.3 66.7 1017 65.5C1054.7 64.3 1092.3 54.7 1130 50.3C1167.7 46 1205.3 47 1243.2 48.3C1281 49.7 1319 51.3 1356.8 50.8C1394.7 50.3 1432.3 47.7 1470 45.7C1507.7 43.7 1545.3 42.3 1583 45.7C1620.7 49 1658.3 57 1696 62.8C1733.7 68.7 1771.3 72.3 1809 72.2C1846.7 72 1884.3 68 1922 64.8C1959.7 61.7 1997.3 59.3 2035 58.5C2072.7 57.7 2110.3 58.3 2148 58.2C2185.7 58 2223.3 57 2261 59.7C2298.7 62.3 2336.3 68.7 2374 70.8C2411.7 73 2449.3 71 2487 70.8C2524.7 70.7 2562.3 72.3 2581.2 73.2L2600 74L2600 0L2581.2 0C2562.3 0 2524.7 0 2487 0C2449.3 0 2411.7 0 2374 0C2336.3 0 2298.7 0 2261 0C2223.3 0 2185.7 0 2148 0C2110.3 0 2072.7 0 2035 0C1997.3 0 1959.7 0 1922 0C1884.3 0 1846.7 0 1809 0C1771.3 0 1733.7 0 1696 0C1658.3 0 1620.7 0 1583 0C1545.3 0 1507.7 0 1470 0C1432.3 0 1394.7 0 1356.8 0C1319 0 1281 0 1243.2 0C1205.3 0 1167.7 0 1130 0C1092.3 0 1054.7 0 1017 0C979.3 0 941.7 0 904 0C866.3 0 828.7 0 791 0C753.3 0 715.7 0 678 0C640.3 0 602.7 0 565 0C527.3 0 489.7 0 452 0C414.3 0 376.7 0 339 0C301.3 0 263.7 0 226 0C188.3 0 150.7 0 113 0C75.3 0 37.7 0 18.8 0L0 0Z" fill="#fa7268"></path><path d="M0 69L18.8 68C37.7 67 75.3 65 113 64.2C150.7 63.3 188.3 63.7 226 59.3C263.7 55 301.3 46 339 46.2C376.7 46.3 414.3 55.7 452 58.7C489.7 61.7 527.3 58.3 565 54.2C602.7 50 640.3 45 678 45.8C715.7 46.7 753.3 53.3 791 52.7C828.7 52 866.3 44 904 44.8C941.7 45.7 979.3 55.3 1017 60.5C1054.7 65.7 1092.3 66.3 1130 66.5C1167.7 66.7 1205.3 66.3 1243.2 66.5C1281 66.7 1319 67.3 1356.8 68C1394.7 68.7 1432.3 69.3 1470 65.7C1507.7 62 1545.3 54 1583 51.8C1620.7 49.7 1658.3 53.3 1696 56C1733.7 58.7 1771.3 60.3 1809 59.5C1846.7 58.7 1884.3 55.3 1922 52.2C1959.7 49 1997.3 46 2035 48.3C2072.7 50.7 2110.3 58.3 2148 58.3C2185.7 58.3 2223.3 50.7 2261 47.2C2298.7 43.7 2336.3 44.3 2374 48.8C2411.7 53.3 2449.3 61.7 2487 63.3C2524.7 65 2562.3 60 2581.2 57.5L2600 55L2600 0L2581.2 0C2562.3 0 2524.7 0 2487 0C2449.3 0 2411.7 0 2374 0C2336.3 0 2298.7 0 2261 0C2223.3 0 2185.7 0 2148 0C2110.3 0 2072.7 0 2035 0C1997.3 0 1959.7 0 1922 0C1884.3 0 1846.7 0 1809 0C1771.3 0 1733.7 0 1696 0C1658.3 0 1620.7 0 1583 0C1545.3 0 1507.7 0 1470 0C1432.3 0 1394.7 0 1356.8 0C1319 0 1281 0 1243.2 0C1205.3 0 1167.7 0 1130 0C1092.3 0 1054.7 0 1017 0C979.3 0 941.7 0 904 0C866.3 0 828.7 0 791 0C753.3 0 715.7 0 678 0C640.3 0 602.7 0 565 0C527.3 0 489.7 0 452 0C414.3 0 376.7 0 339 0C301.3 0 263.7 0 226 0C188.3 0 150.7 0 113 0C75.3 0 37.7 0 18.8 0L0 0Z" fill="#f66b68"></path><path d="M0 38L18.8 38.8C37.7 39.7 75.3 41.3 113 40.7C150.7 40 188.3 37 226 38.8C263.7 40.7 301.3 47.3 339 51.7C376.7 56 414.3 58 452 56.7C489.7 55.3 527.3 50.7 565 50.8C602.7 51 640.3 56 678 57C715.7 58 753.3 55 791 54.3C828.7 53.7 866.3 55.3 904 52.2C941.7 49 979.3 41 1017 41.5C1054.7 42 1092.3 51 1130 51.3C1167.7 51.7 1205.3 43.3 1243.2 40.2C1281 37 1319 39 1356.8 42.8C1394.7 46.7 1432.3 52.3 1470 55.8C1507.7 59.3 1545.3 60.7 1583 57.8C1620.7 55 1658.3 48 1696 46.5C1733.7 45 1771.3 49 1809 51C1846.7 53 1884.3 53 1922 55C1959.7 57 1997.3 61 2035 60.2C2072.7 59.3 2110.3 53.7 2148 51.3C2185.7 49 2223.3 50 2261 47.3C2298.7 44.7 2336.3 38.3 2374 36.5C2411.7 34.7 2449.3 37.3 2487 42.3C2524.7 47.3 2562.3 54.7 2581.2 58.3L2600 62L2600 0L2581.2 0C2562.3 0 2524.7 0 2487 0C2449.3 0 2411.7 0 2374 0C2336.3 0 2298.7 0 2261 0C2223.3 0 2185.7 0 2148 0C2110.3 0 2072.7 0 2035 0C1997.3 0 1959.7 0 1922 0C1884.3 0 1846.7 0 1809 0C1771.3 0 1733.7 0 1696 0C1658.3 0 1620.7 0 1583 0C1545.3 0 1507.7 0 1470 0C1432.3 0 1394.7 0 1356.8 0C1319 0 1281 0 1243.2 0C1205.3 0 1167.7 0 1130 0C1092.3 0 1054.7 0 1017 0C979.3 0 941.7 0 904 0C866.3 0 828.7 0 791 0C753.3 0 715.7 0 678 0C640.3 0 602.7 0 565 0C527.3 0 489.7 0 452 0C414.3 0 376.7 0 339 0C301.3 0 263.7 0 226 0C188.3 0 150.7 0 113 0C75.3 0 37.7 0 18.8 0L0 0Z" fill="#f26467"></path><path d="M0 36L18.8 39.5C37.7 43 75.3 50 113 51.2C150.7 52.3 188.3 47.7 226 45.7C263.7 43.7 301.3 44.3 339 46.2C376.7 48 414.3 51 452 49.5C489.7 48 527.3 42 565 37.8C602.7 33.7 640.3 31.3 678 31.3C715.7 31.3 753.3 33.7 791 36.3C828.7 39 866.3 42 904 44.5C941.7 47 979.3 49 1017 50.2C1054.7 51.3 1092.3 51.7 1130 50.2C1167.7 48.7 1205.3 45.3 1243.2 41.8C1281 38.3 1319 34.7 1356.8 33.7C1394.7 32.7 1432.3 34.3 1470 36.3C1507.7 38.3 1545.3 40.7 1583 40.8C1620.7 41 1658.3 39 1696 37.5C1733.7 36 1771.3 35 1809 34.2C1846.7 33.3 1884.3 32.7 1922 33.7C1959.7 34.7 1997.3 37.3 2035 36.8C2072.7 36.3 2110.3 32.7 2148 34.5C2185.7 36.3 2223.3 43.7 2261 46C2298.7 48.3 2336.3 45.7 2374 45.8C2411.7 46 2449.3 49 2487 47.3C2524.7 45.7 2562.3 39.3 2581.2 36.2L2600 33L2600 0L2581.2 0C2562.3 0 2524.7 0 2487 0C2449.3 0 2411.7 0 2374 0C2336.3 0 2298.7 0 2261 0C2223.3 0 2185.7 0 2148 0C2110.3 0 2072.7 0 2035 0C1997.3 0 1959.7 0 1922 0C1884.3 0 1846.7 0 1809 0C1771.3 0 1733.7 0 1696 0C1658.3 0 1620.7 0 1583 0C1545.3 0 1507.7 0 1470 0C1432.3 0 1394.7 0 1356.8 0C1319 0 1281 0 1243.2 0C1205.3 0 1167.7 0 1130 0C1092.3 0 1054.7 0 1017 0C979.3 0 941.7 0 904 0C866.3 0 828.7 0 791 0C753.3 0 715.7 0 678 0C640.3 0 602.7 0 565 0C527.3 0 489.7 0 452 0C414.3 0 376.7 0 339 0C301.3 0 263.7 0 226 0C188.3 0 150.7 0 113 0C75.3 0 37.7 0 18.8 0L0 0Z" fill="#ee5d67"></path><path d="M0 44L18.8 44.2C37.7 44.3 75.3 44.7 113 41.7C150.7 38.7 188.3 32.3 226 32.2C263.7 32 301.3 38 339 40.5C376.7 43 414.3 42 452 39.5C489.7 37 527.3 33 565 30.5C602.7 28 640.3 27 678 26.8C715.7 26.7 753.3 27.3 791 28.8C828.7 30.3 866.3 32.7 904 34.5C941.7 36.3 979.3 37.7 1017 40.7C1054.7 43.7 1092.3 48.3 1130 48.7C1167.7 49 1205.3 45 1243.2 43C1281 41 1319 41 1356.8 41C1394.7 41 1432.3 41 1470 38.8C1507.7 36.7 1545.3 32.3 1583 30.5C1620.7 28.7 1658.3 29.3 1696 32.7C1733.7 36 1771.3 42 1809 44.5C1846.7 47 1884.3 46 1922 43C1959.7 40 1997.3 35 2035 34.8C2072.7 34.7 2110.3 39.3 2148 41.3C2185.7 43.3 2223.3 42.7 2261 42.7C2298.7 42.7 2336.3 43.3 2374 44.7C2411.7 46 2449.3 48 2487 49C2524.7 50 2562.3 50 2581.2 50L2600 50L2600 0L2581.2 0C2562.3 0 2524.7 0 2487 0C2449.3 0 2411.7 0 2374 0C2336.3 0 2298.7 0 2261 0C2223.3 0 2185.7 0 2148 0C2110.3 0 2072.7 0 2035 0C1997.3 0 1959.7 0 1922 0C1884.3 0 1846.7 0 1809 0C1771.3 0 1733.7 0 1696 0C1658.3 0 1620.7 0 1583 0C1545.3 0 1507.7 0 1470 0C1432.3 0 1394.7 0 1356.8 0C1319 0 1281 0 1243.2 0C1205.3 0 1167.7 0 1130 0C1092.3 0 1054.7 0 1017 0C979.3 0 941.7 0 904 0C866.3 0 828.7 0 791 0C753.3 0 715.7 0 678 0C640.3 0 602.7 0 565 0C527.3 0 489.7 0 452 0C414.3 0 376.7 0 339 0C301.3 0 263.7 0 226 0C188.3 0 150.7 0 113 0C75.3 0 37.7 0 18.8 0L0 0Z" fill="#ea5667"></path><path d="M0 36L18.8 33.7C37.7 31.3 75.3 26.7 113 26.7C150.7 26.7 188.3 31.3 226 34.2C263.7 37 301.3 38 339 37.7C376.7 37.3 414.3 35.7 452 36.2C489.7 36.7 527.3 39.3 565 40.8C602.7 42.3 640.3 42.7 678 39.7C715.7 36.7 753.3 30.3 791 29.8C828.7 29.3 866.3 34.7 904 34.3C941.7 34 979.3 28 1017 28.5C1054.7 29 1092.3 36 1130 38.7C1167.7 41.3 1205.3 39.7 1243.2 37.2C1281 34.7 1319 31.3 1356.8 30.5C1394.7 29.7 1432.3 31.3 1470 34.3C1507.7 37.3 1545.3 41.7 1583 41.7C1620.7 41.7 1658.3 37.3 1696 33.3C1733.7 29.3 1771.3 25.7 1809 27.7C1846.7 29.7 1884.3 37.3 1922 39C1959.7 40.7 1997.3 36.3 2035 32.8C2072.7 29.3 2110.3 26.7 2148 27.7C2185.7 28.7 2223.3 33.3 2261 33.5C2298.7 33.7 2336.3 29.3 2374 30.3C2411.7 31.3 2449.3 37.7 2487 38.8C2524.7 40 2562.3 36 2581.2 34L2600 32L2600 0L2581.2 0C2562.3 0 2524.7 0 2487 0C2449.3 0 2411.7 0 2374 0C2336.3 0 2298.7 0 2261 0C2223.3 0 2185.7 0 2148 0C2110.3 0 2072.7 0 2035 0C1997.3 0 1959.7 0 1922 0C1884.3 0 1846.7 0 1809 0C1771.3 0 1733.7 0 1696 0C1658.3 0 1620.7 0 1583 0C1545.3 0 1507.7 0 1470 0C1432.3 0 1394.7 0 1356.8 0C1319 0 1281 0 1243.2 0C1205.3 0 1167.7 0 1130 0C1092.3 0 1054.7 0 1017 0C979.3 0 941.7 0 904 0C866.3 0 828.7 0 791 0C753.3 0 715.7 0 678 0C640.3 0 602.7 0 565 0C527.3 0 489.7 0 452 0C414.3 0 376.7 0 339 0C301.3 0 263.7 0 226 0C188.3 0 150.7 0 113 0C75.3 0 37.7 0 18.8 0L0 0Z" fill="#e54f67"></path><path d="M0 34L18.8 33.8C37.7 33.7 75.3 33.3 113 34.2C150.7 35 188.3 37 226 35.7C263.7 34.3 301.3 29.7 339 26.7C376.7 23.7 414.3 22.3 452 22.5C489.7 22.7 527.3 24.3 565 26.8C602.7 29.3 640.3 32.7 678 34C715.7 35.3 753.3 34.7 791 34.3C828.7 34 866.3 34 904 31.5C941.7 29 979.3 24 1017 23.2C1054.7 22.3 1092.3 25.7 1130 27C1167.7 28.3 1205.3 27.7 1243.2 28.7C1281 29.7 1319 32.3 1356.8 31.8C1394.7 31.3 1432.3 27.7 1470 25.2C1507.7 22.7 1545.3 21.3 1583 22.8C1620.7 24.3 1658.3 28.7 1696 32.2C1733.7 35.7 1771.3 38.3 1809 36.7C1846.7 35 1884.3 29 1922 26C1959.7 23 1997.3 23 2035 24C2072.7 25 2110.3 27 2148 26.5C2185.7 26 2223.3 23 2261 22.8C2298.7 22.7 2336.3 25.3 2374 25.5C2411.7 25.7 2449.3 23.3 2487 23C2524.7 22.7 2562.3 24.3 2581.2 25.2L2600 26L2600 0L2581.2 0C2562.3 0 2524.7 0 2487 0C2449.3 0 2411.7 0 2374 0C2336.3 0 2298.7 0 2261 0C2223.3 0 2185.7 0 2148 0C2110.3 0 2072.7 0 2035 0C1997.3 0 1959.7 0 1922 0C1884.3 0 1846.7 0 1809 0C1771.3 0 1733.7 0 1696 0C1658.3 0 1620.7 0 1583 0C1545.3 0 1507.7 0 1470 0C1432.3 0 1394.7 0 1356.8 0C1319 0 1281 0 1243.2 0C1205.3 0 1167.7 0 1130 0C1092.3 0 1054.7 0 1017 0C979.3 0 941.7 0 904 0C866.3 0 828.7 0 791 0C753.3 0 715.7 0 678 0C640.3 0 602.7 0 565 0C527.3 0 489.7 0 452 0C414.3 0 376.7 0 339 0C301.3 0 263.7 0 226 0C188.3 0 150.7 0 113 0C75.3 0 37.7 0 18.8 0L0 0Z" fill="#e14867"></path><path d="M0 24L18.8 25.3C37.7 26.7 75.3 29.3 113 28.7C150.7 28 188.3 24 226 24.2C263.7 24.3 301.3 28.7 339 29.2C376.7 29.7 414.3 26.3 452 26C489.7 25.7 527.3 28.3 565 30.2C602.7 32 640.3 33 678 31.2C715.7 29.3 753.3 24.7 791 21.5C828.7 18.3 866.3 16.7 904 18C941.7 19.3 979.3 23.7 1017 26.5C1054.7 29.3 1092.3 30.7 1130 31.5C1167.7 32.3 1205.3 32.7 1243.2 30.3C1281 28 1319 23 1356.8 22.3C1394.7 21.7 1432.3 25.3 1470 27.8C1507.7 30.3 1545.3 31.7 1583 32.3C1620.7 33 1658.3 33 1696 33.3C1733.7 33.7 1771.3 34.3 1809 33.7C1846.7 33 1884.3 31 1922 29C1959.7 27 1997.3 25 2035 23.7C2072.7 22.3 2110.3 21.7 2148 22.3C2185.7 23 2223.3 25 2261 27C2298.7 29 2336.3 31 2374 31C2411.7 31 2449.3 29 2487 26.7C2524.7 24.3 2562.3 21.7 2581.2 20.3L2600 19L2600 0L2581.2 0C2562.3 0 2524.7 0 2487 0C2449.3 0 2411.7 0 2374 0C2336.3 0 2298.7 0 2261 0C2223.3 0 2185.7 0 2148 0C2110.3 0 2072.7 0 2035 0C1997.3 0 1959.7 0 1922 0C1884.3 0 1846.7 0 1809 0C1771.3 0 1733.7 0 1696 0C1658.3 0 1620.7 0 1583 0C1545.3 0 1507.7 0 1470 0C1432.3 0 1394.7 0 1356.8 0C1319 0 1281 0 1243.2 0C1205.3 0 1167.7 0 1130 0C1092.3 0 1054.7 0 1017 0C979.3 0 941.7 0 904 0C866.3 0 828.7 0 791 0C753.3 0 715.7 0 678 0C640.3 0 602.7 0 565 0C527.3 0 489.7 0 452 0C414.3 0 376.7 0 339 0C301.3 0 263.7 0 226 0C188.3 0 150.7 0 113 0C75.3 0 37.7 0 18.8 0L0 0Z" fill="#dc4167"></path><path d="M0 13L18.8 13C37.7 13 75.3 13 113 15.5C150.7 18 188.3 23 226 24C263.7 25 301.3 22 339 21C376.7 20 414.3 21 452 22.3C489.7 23.7 527.3 25.3 565 24.5C602.7 23.7 640.3 20.3 678 18C715.7 15.7 753.3 14.3 791 15.7C828.7 17 866.3 21 904 23C941.7 25 979.3 25 1017 25.3C1054.7 25.7 1092.3 26.3 1130 25.2C1167.7 24 1205.3 21 1243.2 20.3C1281 19.7 1319 21.3 1356.8 22.5C1394.7 23.7 1432.3 24.3 1470 23.8C1507.7 23.3 1545.3 21.7 1583 22.2C1620.7 22.7 1658.3 25.3 1696 24.2C1733.7 23 1771.3 18 1809 15.5C1846.7 13 1884.3 13 1922 13.3C1959.7 13.7 1997.3 14.3 2035 16.5C2072.7 18.7 2110.3 22.3 2148 22.7C2185.7 23 2223.3 20 2261 19.2C2298.7 18.3 2336.3 19.7 2374 20.3C2411.7 21 2449.3 21 2487 22.2C2524.7 23.3 2562.3 25.7 2581.2 26.8L2600 28L2600 0L2581.2 0C2562.3 0 2524.7 0 2487 0C2449.3 0 2411.7 0 2374 0C2336.3 0 2298.7 0 2261 0C2223.3 0 2185.7 0 2148 0C2110.3 0 2072.7 0 2035 0C1997.3 0 1959.7 0 1922 0C1884.3 0 1846.7 0 1809 0C1771.3 0 1733.7 0 1696 0C1658.3 0 1620.7 0 1583 0C1545.3 0 1507.7 0 1470 0C1432.3 0 1394.7 0 1356.8 0C1319 0 1281 0 1243.2 0C1205.3 0 1167.7 0 1130 0C1092.3 0 1054.7 0 1017 0C979.3 0 941.7 0 904 0C866.3 0 828.7 0 791 0C753.3 0 715.7 0 678 0C640.3 0 602.7 0 565 0C527.3 0 489.7 0 452 0C414.3 0 376.7 0 339 0C301.3 0 263.7 0 226 0C188.3 0 150.7 0 113 0C75.3 0 37.7 0 18.8 0L0 0Z" fill="#d73a67"></path><path d="M0 11L18.8 11.2C37.7 11.3 75.3 11.7 113 12.3C150.7 13 188.3 14 226 13.8C263.7 13.7 301.3 12.3 339 12.3C376.7 12.3 414.3 13.7 452 13.5C489.7 13.3 527.3 11.7 565 12.3C602.7 13 640.3 16 678 17C715.7 18 753.3 17 791 15.8C828.7 14.7 866.3 13.3 904 12.7C941.7 12 979.3 12 1017 12.2C1054.7 12.3 1092.3 12.7 1130 13.2C1167.7 13.7 1205.3 14.3 1243.2 15C1281 15.7 1319 16.3 1356.8 16.5C1394.7 16.7 1432.3 16.3 1470 17C1507.7 17.7 1545.3 19.3 1583 19.5C1620.7 19.7 1658.3 18.3 1696 16.5C1733.7 14.7 1771.3 12.3 1809 13.3C1846.7 14.3 1884.3 18.7 1922 19.3C1959.7 20 1997.3 17 2035 14.7C2072.7 12.3 2110.3 10.7 2148 11.7C2185.7 12.7 2223.3 16.3 2261 17.8C2298.7 19.3 2336.3 18.7 2374 18.5C2411.7 18.3 2449.3 18.7 2487 18C2524.7 17.3 2562.3 15.7 2581.2 14.8L2600 14L2600 0L2581.2 0C2562.3 0 2524.7 0 2487 0C2449.3 0 2411.7 0 2374 0C2336.3 0 2298.7 0 2261 0C2223.3 0 2185.7 0 2148 0C2110.3 0 2072.7 0 2035 0C1997.3 0 1959.7 0 1922 0C1884.3 0 1846.7 0 1809 0C1771.3 0 1733.7 0 1696 0C1658.3 0 1620.7 0 1583 0C1545.3 0 1507.7 0 1470 0C1432.3 0 1394.7 0 1356.8 0C1319 0 1281 0 1243.2 0C1205.3 0 1167.7 0 1130 0C1092.3 0 1054.7 0 1017 0C979.3 0 941.7 0 904 0C866.3 0 828.7 0 791 0C753.3 0 715.7 0 678 0C640.3 0 602.7 0 565 0C527.3 0 489.7 0 452 0C414.3 0 376.7 0 339 0C301.3 0 263.7 0 226 0C188.3 0 150.7 0 113 0C75.3 0 37.7 0 18.8 0L0 0Z" fill="#d13367"></path><path d="M0 7L18.8 8.5C37.7 10 75.3 13 113 13C150.7 13 188.3 10 226 9C263.7 8 301.3 9 339 9.7C376.7 10.3 414.3 10.7 452 11.2C489.7 11.7 527.3 12.3 565 12.5C602.7 12.7 640.3 12.3 678 12.3C715.7 12.3 753.3 12.7 791 11.8C828.7 11 866.3 9 904 8.7C941.7 8.3 979.3 9.7 1017 10.2C1054.7 10.7 1092.3 10.3 1130 9.8C1167.7 9.3 1205.3 8.7 1243.2 8.2C1281 7.7 1319 7.3 1356.8 7.3C1394.7 7.3 1432.3 7.7 1470 9C1507.7 10.3 1545.3 12.7 1583 13.8C1620.7 15 1658.3 15 1696 14.2C1733.7 13.3 1771.3 11.7 1809 11.8C1846.7 12 1884.3 14 1922 13.3C1959.7 12.7 1997.3 9.3 2035 8C2072.7 6.7 2110.3 7.3 2148 7.5C2185.7 7.7 2223.3 7.3 2261 7.7C2298.7 8 2336.3 9 2374 10.2C2411.7 11.3 2449.3 12.7 2487 12.8C2524.7 13 2562.3 12 2581.2 11.5L2600 11L2600 0L2581.2 0C2562.3 0 2524.7 0 2487 0C2449.3 0 2411.7 0 2374 0C2336.3 0 2298.7 0 2261 0C2223.3 0 2185.7 0 2148 0C2110.3 0 2072.7 0 2035 0C1997.3 0 1959.7 0 1922 0C1884.3 0 1846.7 0 1809 0C1771.3 0 1733.7 0 1696 0C1658.3 0 1620.7 0 1583 0C1545.3 0 1507.7 0 1470 0C1432.3 0 1394.7 0 1356.8 0C1319 0 1281 0 1243.2 0C1205.3 0 1167.7 0 1130 0C1092.3 0 1054.7 0 1017 0C979.3 0 941.7 0 904 0C866.3 0 828.7 0 791 0C753.3 0 715.7 0 678 0C640.3 0 602.7 0 565 0C527.3 0 489.7 0 452 0C414.3 0 376.7 0 339 0C301.3 0 263.7 0 226 0C188.3 0 150.7 0 113 0C75.3 0 37.7 0 18.8 0L0 0Z" fill="#cc2b68"></path><path d="M0 8L18.8 7.5C37.7 7 75.3 6 113 5.2C150.7 4.3 188.3 3.7 226 4.3C263.7 5 301.3 7 339 7C376.7 7 414.3 5 452 5.2C489.7 5.3 527.3 7.7 565 8.8C602.7 10 640.3 10 678 9C715.7 8 753.3 6 791 5.7C828.7 5.3 866.3 6.7 904 6.8C941.7 7 979.3 6 1017 6.2C1054.7 6.3 1092.3 7.7 1130 8.5C1167.7 9.3 1205.3 9.7 1243.2 8.8C1281 8 1319 6 1356.8 5.2C1394.7 4.3 1432.3 4.7 1470 5.7C1507.7 6.7 1545.3 8.3 1583 9.2C1620.7 10 1658.3 10 1696 9.5C1733.7 9 1771.3 8 1809 8C1846.7 8 1884.3 9 1922 9.5C1959.7 10 1997.3 10 2035 9.3C2072.7 8.7 2110.3 7.3 2148 6.3C2185.7 5.3 2223.3 4.7 2261 5.2C2298.7 5.7 2336.3 7.3 2374 7.2C2411.7 7 2449.3 5 2487 5.2C2524.7 5.3 2562.3 7.7 2581.2 8.8L2600 10L2600 0L2581.2 0C2562.3 0 2524.7 0 2487 0C2449.3 0 2411.7 0 2374 0C2336.3 0 2298.7 0 2261 0C2223.3 0 2185.7 0 2148 0C2110.3 0 2072.7 0 2035 0C1997.3 0 1959.7 0 1922 0C1884.3 0 1846.7 0 1809 0C1771.3 0 1733.7 0 1696 0C1658.3 0 1620.7 0 1583 0C1545.3 0 1507.7 0 1470 0C1432.3 0 1394.7 0 1356.8 0C1319 0 1281 0 1243.2 0C1205.3 0 1167.7 0 1130 0C1092.3 0 1054.7 0 1017 0C979.3 0 941.7 0 904 0C866.3 0 828.7 0 791 0C753.3 0 715.7 0 678 0C640.3 0 602.7 0 565 0C527.3 0 489.7 0 452 0C414.3 0 376.7 0 339 0C301.3 0 263.7 0 226 0C188.3 0 150.7 0 113 0C75.3 0 37.7 0 18.8 0L0 0Z" fill="#c62368"></path></svg>