<svg id="visual" viewBox="0 0 900 100" width="900" height="100" xmlns="http://www.w3.org/2000/svg" xmlns:xlink="http://www.w3.org/1999/xlink" version="1.1"><path d="M0 65L11.5 66.3C23 67.7 46 70.3 69 69.2C92 68 115 63 138.2 61.8C161.3 60.7 184.7 63.3 207.8 67.5C231 71.7 254 77.3 277 75.7C300 74 323 65 346 63.7C369 62.3 392 68.7 415.2 73C438.3 77.3 461.7 79.7 484.8 80C508 80.3 531 78.7 554 78C577 77.3 600 77.7 623 78.2C646 78.7 669 79.3 692.2 75.2C715.3 71 738.7 62 761.8 60.7C785 59.3 808 65.7 831 69.2C854 72.7 877 73.3 888.5 73.7L900 74L900 0L888.5 0C877 0 854 0 831 0C808 0 785 0 761.8 0C738.7 0 715.3 0 692.2 0C669 0 646 0 623 0C600 0 577 0 554 0C531 0 508 0 484.8 0C461.7 0 438.3 0 415.2 0C392 0 369 0 346 0C323 0 300 0 277 0C254 0 231 0 207.8 0C184.7 0 161.3 0 138.2 0C115 0 92 0 69 0C46 0 23 0 11.5 0L0 0Z" fill="#fa7268"></path><path d="M0 45L11.5 46.8C23 48.7 46 52.3 69 52.5C92 52.7 115 49.3 138.2 48.2C161.3 47 184.7 48 207.8 48.5C231 49 254 49 277 50.3C300 51.7 323 54.3 346 55.2C369 56 392 55 415.2 56.2C438.3 57.3 461.7 60.7 484.8 58.7C508 56.7 531 49.3 554 48.8C577 48.3 600 54.7 623 57.2C646 59.7 669 58.3 692.2 58.5C715.3 58.7 738.7 60.3 761.8 59.8C785 59.3 808 56.7 831 53.3C854 50 877 46 888.5 44L900 42L900 0L888.5 0C877 0 854 0 831 0C808 0 785 0 761.8 0C738.7 0 715.3 0 692.2 0C669 0 646 0 623 0C600 0 577 0 554 0C531 0 508 0 484.8 0C461.7 0 438.3 0 415.2 0C392 0 369 0 346 0C323 0 300 0 277 0C254 0 231 0 207.8 0C184.7 0 161.3 0 138.2 0C115 0 92 0 69 0C46 0 23 0 11.5 0L0 0Z" fill="#f16367"></path><path d="M0 46L11.5 43.8C23 41.7 46 37.3 69 37C92 36.7 115 40.3 138.2 41.5C161.3 42.7 184.7 41.3 207.8 40C231 38.7 254 37.3 277 39.7C300 42 323 48 346 48C369 48 392 42 415.2 41C438.3 40 461.7 44 484.8 44C508 44 531 40 554 38.7C577 37.3 600 38.7 623 39.2C646 39.7 669 39.3 692.2 42.2C715.3 45 738.7 51 761.8 50.8C785 50.7 808 44.3 831 43.3C854 42.3 877 46.7 888.5 48.8L900 51L900 0L888.5 0C877 0 854 0 831 0C808 0 785 0 761.8 0C738.7 0 715.3 0 692.2 0C669 0 646 0 623 0C600 0 577 0 554 0C531 0 508 0 484.8 0C461.7 0 438.3 0 415.2 0C392 0 369 0 346 0C323 0 300 0 277 0C254 0 231 0 207.8 0C184.7 0 161.3 0 138.2 0C115 0 92 0 69 0C46 0 23 0 11.5 0L0 0Z" fill="#e85467"></path><path d="M0 26L11.5 27.8C23 29.7 46 33.3 69 33.7C92 34 115 31 138.2 30C161.3 29 184.7 30 207.8 31.2C231 32.3 254 33.7 277 34.2C300 34.7 323 34.3 346 33.7C369 33 392 32 415.2 33.2C438.3 34.3 461.7 37.7 484.8 39C508 40.3 531 39.7 554 38.5C577 37.3 600 35.7 623 36.7C646 37.7 669 41.3 692.2 42.5C715.3 43.7 738.7 42.3 761.8 39.3C785 36.3 808 31.7 831 29C854 26.3 877 25.7 888.5 25.3L900 25L900 0L888.5 0C877 0 854 0 831 0C808 0 785 0 761.8 0C738.7 0 715.3 0 692.2 0C669 0 646 0 623 0C600 0 577 0 554 0C531 0 508 0 484.8 0C461.7 0 438.3 0 415.2 0C392 0 369 0 346 0C323 0 300 0 277 0C254 0 231 0 207.8 0C184.7 0 161.3 0 138.2 0C115 0 92 0 69 0C46 0 23 0 11.5 0L0 0Z" fill="#de4467"></path><path d="M0 27L11.5 25.3C23 23.7 46 20.3 69 21C92 21.7 115 26.3 138.2 28.7C161.3 31 184.7 31 207.8 30C231 29 254 27 277 25.3C300 23.7 323 22.3 346 21.2C369 20 392 19 415.2 18.5C438.3 18 461.7 18 484.8 20C508 22 531 26 554 26.5C577 27 600 24 623 24.2C646 24.3 669 27.7 692.2 26.7C715.3 25.7 738.7 20.3 761.8 18.2C785 16 808 17 831 19.3C854 21.7 877 25.3 888.5 27.2L900 29L900 0L888.5 0C877 0 854 0 831 0C808 0 785 0 761.8 0C738.7 0 715.3 0 692.2 0C669 0 646 0 623 0C600 0 577 0 554 0C531 0 508 0 484.8 0C461.7 0 438.3 0 415.2 0C392 0 369 0 346 0C323 0 300 0 277 0C254 0 231 0 207.8 0C184.7 0 161.3 0 138.2 0C115 0 92 0 69 0C46 0 23 0 11.5 0L0 0Z" fill="#d23467"></path><path d="M0 14L11.5 13C23 12 46 10 69 10.3C92 10.7 115 13.3 138.2 13.3C161.3 13.3 184.7 10.7 207.8 10.3C231 10 254 12 277 11.7C300 11.3 323 8.7 346 8C369 7.3 392 8.7 415.2 9.8C438.3 11 461.7 12 484.8 13.5C508 15 531 17 554 17.8C577 18.7 600 18.3 623 16.2C646 14 669 10 692.2 9.2C715.3 8.3 738.7 10.7 761.8 10.8C785 11 808 9 831 10.2C854 11.3 877 15.7 888.5 17.8L900 20L900 0L888.5 0C877 0 854 0 831 0C808 0 785 0 761.8 0C738.7 0 715.3 0 692.2 0C669 0 646 0 623 0C600 0 577 0 554 0C531 0 508 0 484.8 0C461.7 0 438.3 0 415.2 0C392 0 369 0 346 0C323 0 300 0 277 0C254 0 231 0 207.8 0C184.7 0 161.3 0 138.2 0C115 0 92 0 69 0C46 0 23 0 11.5 0L0 0Z" fill="#c62368"></path></svg>