<svg id="visual" viewBox="0 0 2000 40" width="2000" height="40" xmlns="http://www.w3.org/2000/svg" xmlns:xlink="http://www.w3.org/1999/xlink" version="1.1"><path d="M0 4L182 4L364 2L545 3L727 3L909 4L1091 3L1273 3L1455 3L1636 4L1818 3L2000 2L2000 0L1818 0L1636 0L1455 0L1273 0L1091 0L909 0L727 0L545 0L364 0L182 0L0 0Z" fill="#c90557"></path><path d="M0 7L182 9L364 6L545 9L727 12L909 8L1091 7L1273 7L1455 9L1636 11L1818 8L2000 11L2000 0L1818 1L1636 2L1455 1L1273 1L1091 1L909 2L727 1L545 1L364 0L182 2L0 2Z" fill="#dd074c"></path><path d="M0 10L182 13L364 9L545 12L727 15L909 12L1091 9L1273 8L1455 11L1636 12L1818 12L2000 13L2000 9L1818 6L1636 9L1455 7L1273 5L1091 5L909 6L727 10L545 7L364 4L182 7L0 5Z" fill="#ef1a3e"></path><path d="M0 14L182 19L364 13L545 15L727 19L909 17L1091 15L1273 13L1455 16L1636 17L1818 17L2000 16L2000 11L1818 10L1636 10L1455 9L1273 6L1091 7L909 10L727 13L545 10L364 7L182 11L0 8Z" fill="#fd302b"></path><path d="M0 18L182 21L364 17L545 19L727 21L909 20L1091 17L1273 16L1455 18L1636 19L1818 21L2000 18L2000 14L1818 15L1636 15L1455 14L1273 11L1091 13L909 15L727 17L545 13L364 11L182 17L0 12Z" fill="#ff3526"></path><path d="M0 22L182 23L364 19L545 23L727 22L909 24L1091 20L1273 17L1455 21L1636 23L1818 25L2000 22L2000 16L1818 19L1636 17L1455 16L1273 14L1091 15L909 18L727 19L545 17L364 15L182 19L0 16Z" fill="#fd302b"></path><path d="M0 30L182 31L364 27L545 30L727 33L909 30L1091 27L1273 29L1455 27L1636 29L1818 35L2000 34L2000 20L1818 23L1636 21L1455 19L1273 15L1091 18L909 22L727 20L545 21L364 17L182 21L0 20Z" fill="#ef1a3e"></path><path d="M0 39L182 39L364 37L545 39L727 40L909 40L1091 37L1273 38L1455 40L1636 39L1818 39L2000 40L2000 32L1818 33L1636 27L1455 25L1273 27L1091 25L909 28L727 31L545 28L364 25L182 29L0 28Z" fill="#dd074c"></path><path d="M0 41L182 41L364 41L545 41L727 41L909 41L1091 41L1273 41L1455 41L1636 41L1818 41L2000 41L2000 38L1818 37L1636 37L1455 38L1273 36L1091 35L909 38L727 38L545 37L364 35L182 37L0 37Z" fill="#c90557"></path></svg>